<?xml version="1.0" encoding="UTF-8"?>
<svg  version="1.2" viewBox="0 0 375 187.5" xmlns="http://www.w3.org/2000/svg" zoomAndPan="magnify">
<g>
<g fill="currentColor">
<g transform="translate(8.7025 138.36)">
<path d="m25.188-90.859h14.531c6.1445 0 10.797 1.5859 13.953 4.75 3.1562 3.1562 4.7344 7.8047 4.7344 13.938v8.5781c0 1.375-0.69531 2.0625-2.0781 2.0625h-13.109c-1.3867 0-2.0781-0.6875-2.0781-2.0625v-5.4531c0-3.4688-1.7305-5.2031-5.1875-5.2031h-7.1406c-3.4609 0-5.1875 1.7344-5.1875 5.2031v11.031l31.406 10.125c2.25 0.77344 3.375 2.3711 3.375 4.7969v24.406c0 6.0547-1.5781 10.684-4.7344 13.891-3.1562 3.1992-7.8086 4.7969-13.953 4.7969h-14.531c-6.0625 0-10.699-1.5977-13.906-4.7969-3.1992-3.207-4.7969-7.8359-4.7969-13.891v-8.4375c0-1.3828 0.69141-2.0781 2.0781-2.0781h13.109c1.3828 0 2.0781 0.69531 2.0781 2.0781v5.4531c0 3.4609 1.7266 5.1875 5.1875 5.1875h7.0156c3.457 0 5.1875-1.7266 5.1875-5.1875v-13.109l-31.141-10.125c-2.3438-0.78125-3.5156-2.3828-3.5156-4.8125v-22.453c0-6.1328 1.5977-10.781 4.7969-13.938 3.207-3.1641 7.8438-4.75 13.906-4.75z"/>
</g>
</g>
<g fill="currentColor">
<g transform="translate(73.598 138.36)">
<path d="m6.4844-18.688v-53.484c0-6.1328 1.5977-10.781 4.7969-13.938 3.207-3.1641 7.8438-4.75 13.906-4.75h14.531c6.1445 0 10.797 1.5859 13.953 4.75 3.1562 3.1562 4.7344 7.8047 4.7344 13.938v53.484c0 6.0547-1.5781 10.684-4.7344 13.891-3.1562 3.1992-7.8086 4.7969-13.953 4.7969h-14.531c-6.0625 0-10.699-1.5977-13.906-4.7969-3.1992-3.207-4.7969-7.8359-4.7969-13.891zm22.078 1.9375h8.2969c3.457 0 5.1875-1.7266 5.1875-5.1875v-46.984c0-3.457-1.7305-5.1875-5.1875-5.1875h-8.2969c-3.4688 0-5.2031 1.7305-5.2031 5.1875v46.984c0 3.4609 1.7344 5.1875 5.2031 5.1875z"/>
</g>
</g>
<g fill="currentColor">
<g transform="translate(138.49 138.36)">
<path d="m58.406-72.172v26.094c0 7.5312-2.4219 12.809-7.2656 15.828l6.75 27.906c0.42578 1.5625-0.17969 2.3438-1.8125 2.3438h-12.719c-1.2188 0-1.9609-0.60156-2.2188-1.8125l-6.2188-25.578h-11.562v25.312c0 1.3867-0.69531 2.0781-2.0781 2.0781h-12.719c-1.3867 0-2.0781-0.69141-2.0781-2.0781v-86.703c0-1.3828 0.69141-2.0781 2.0781-2.0781h31.156c6.1445 0 10.797 1.5859 13.953 4.75 3.1562 3.1562 4.7344 7.8047 4.7344 13.938zm-35.047 28.047h12.984c3.457 0 5.1875-1.7344 5.1875-5.2031v-19.594c0-3.457-1.7305-5.1875-5.1875-5.1875h-12.984z"/>
</g>
</g>
<g fill="currentColor">
<g transform="translate(203.39 138.36)">
<path d="m53.734-90.859h-47.766c-1.3867 0-2.0781 0.69531-2.0781 2.0781v12.984c0 1.3867 0.69141 2.0781 2.0781 2.0781h15.062v71.641c0 1.3867 0.69141 2.0781 2.0781 2.0781h13.5c1.375 0 2.0625-0.69141 2.0625-2.0781v-71.641h15.062c1.3828 0 2.0781-0.69141 2.0781-2.0781v-12.984c0-1.3828-0.69531-2.0781-2.0781-2.0781z"/>
</g>
</g>
<g fill="#e35f3f">
<g transform="translate(260.86 138.55)">
<path d="m6.5469-2.4844v-21.234c0-1.6562 0.83203-2.4844 2.5-2.4844h2.875c1.6562 0 2.4844-0.82812 2.4844-2.4844v-2.8906c0-1.6562 0.83203-2.4844 2.5-2.4844h2.875c1.6562 0 2.4844-0.82812 2.4844-2.4844v-2.8906c0-1.6562 0.83203-2.4844 2.5-2.4844h10.734c1.6641 0 2.5-0.83203 2.5-2.5v-2.875c0-1.6562-0.83594-2.4844-2.5-2.4844h-10.734c-1.668 0-2.5-0.83203-2.5-2.5v-2.875c0-1.6562-0.82812-2.4844-2.4844-2.4844h-2.875c-1.668 0-2.5-0.83203-2.5-2.5v-2.875c0-1.6562-0.82812-2.4844-2.4844-2.4844h-2.875c-1.668 0-2.5-0.83203-2.5-2.5v-21.219c0-1.6562 0.83203-2.4844 2.5-2.4844h30.391c1.6562 0 2.4844 0.82812 2.4844 2.4844v29.078c0 1.668 0.83203 2.5 2.5 2.5h2.875c1.6562 0 2.4844 0.82812 2.4844 2.4844v2.875c0 1.668 0.83203 2.5 2.5 2.5h2.875c1.6562 0 2.4844-0.83203 2.4844-2.5v-2.875c0-1.6562 0.83203-2.4844 2.5-2.4844h2.875c1.6562 0 2.4844-0.83203 2.4844-2.5v-29.078c0-1.6562 0.83203-2.4844 2.5-2.4844h30.391c1.6562 0 2.4844 0.82812 2.4844 2.4844v21.219c0 1.668-0.82812 2.5-2.4844 2.5h-2.875c-1.668 0-2.5 0.82812-2.5 2.4844v2.875c0 1.668-0.82812 2.5-2.4844 2.5h-2.875c-1.668 0-2.5 0.82812-2.5 2.4844v2.875c0 1.668-0.82812 2.5-2.4844 2.5h-10.75c-1.6562 0-2.4844 0.82812-2.4844 2.4844v2.875c0 1.668 0.82812 2.5 2.4844 2.5h10.75c1.6562 0 2.4844 0.82812 2.4844 2.4844v2.8906c0 1.6562 0.83203 2.4844 2.5 2.4844h2.875c1.6562 0 2.4844 0.82812 2.4844 2.4844v2.8906c0 1.6562 0.83203 2.4844 2.5 2.4844h2.875c1.6562 0 2.4844 0.82812 2.4844 2.4844v21.234c0 1.6562-0.82812 2.4844-2.4844 2.4844h-30.391c-1.668 0-2.5-0.82812-2.5-2.4844v-29.094c0-1.6562-0.82812-2.4844-2.4844-2.4844h-2.875c-1.668 0-2.5-0.82812-2.5-2.4844v-2.8906c0-1.6562-0.82812-2.4844-2.4844-2.4844h-2.875c-1.668 0-2.5 0.82812-2.5 2.4844v2.8906c0 1.6562-0.82812 2.4844-2.4844 2.4844h-2.875c-1.668 0-2.5 0.82812-2.5 2.4844v29.094c0 1.6562-0.82812 2.4844-2.4844 2.4844h-30.391c-1.668 0-2.5-0.82812-2.5-2.4844z"/>
</g>
</g>
</g>
</svg>
